<?xml version="1.0" encoding="UTF-8" standalone="no"?>
<svg
   xmlns:dc="http://purl.org/dc/elements/1.1/"
   xmlns:cc="http://creativecommons.org/ns#"
   xmlns:rdf="http://www.w3.org/1999/02/22-rdf-syntax-ns#"
   xmlns:svg="http://www.w3.org/2000/svg"
   xmlns="http://www.w3.org/2000/svg"
   id="svg2"
   version="1.1"
   width="625.79529"
   height="497.72324"
   viewBox="0 0 625.7953 497.72322">
  <metadata
     id="metadata8">
    <rdf:RDF>
      <cc:Work
         rdf:about="">
        <dc:format>image/svg+xml</dc:format>
        <dc:type
           rdf:resource="http://purl.org/dc/dcmitype/StillImage" />
        <dc:title></dc:title>
      </cc:Work>
    </rdf:RDF>
  </metadata>
  <defs
     id="defs6" />
  <path
     style="fill:#e87e04;fill-opacity:1"
     d="m 106.59118,496.51979 c -4.9536,-1.31555 -13.053705,-8.70686 -15.385105,-14.03882 -1.7649,-4.03637 -1.8771,-9.14497 -2.1584,-98.25774 -0.1632,-51.7 -0.047,-95.37281 0.2579,-97.05068 0.6382,-3.51018 -2.1168,-1.16086 94.538805,-80.61749 18.425,-15.14644 36.9127,-30.41737 41.0838,-33.93541 4.1711,-3.51803 9.3223,-7.74642 11.4472,-9.39642 2.1249,-1.65 10.8966,-8.85 19.4928,-16 24.5915,-20.45448 48.0104,-39.69812 52.6896,-43.29581 l 4.2866,-3.2958 4.2866,3.2958 c 4.8495,3.72865 29.436,23.92456 52.7082,43.29581 8.5898,7.15 17.3435,14.35 19.4525,16 2.1091,1.65 12.4622,10.2 23.0069,19 10.5447,8.8 29.8927,24.775 42.9954,35.5 69.3927,56.80013 80.5723,66.23657 81.1283,68.47851 0.2757,1.11182 0.3709,44.99649 0.2117,97.52149 l -0.2896,95.5 -2.2082,4.12821 c -3.0813,5.76051 -10.3782,11.90431 -15.7429,13.25516 -3.0706,0.77319 -27.6735,1.11663 -79.9917,1.11663 l -75.5572,0 0,-74.50934 0,-74.50933 -49.75,0.25933 -49.75,0.25934 -0.2564,74.25 -0.2564,74.25 -76.2436,-0.10335 c -47.1383,-0.0639 -77.6763,-0.48385 -79.9968,-1.10009 z M 31.344375,291.75724 c -2.5489,-1.06955 -6.641,-5.4544 -19.8278,-21.24625 C 5.6782753,263.51926 0.61407534,256.6538 0.26287534,255.25442 c -0.3513,-1.39939 -0.3497,-4.08437 0,-5.96664 0.87739996,-4.67707 -1.78650004,-2.31006 67.57809966,-60.04491 15.125,-12.58912 29.75,-24.78482 32.500005,-27.10156 2.75,-2.31674 24.35,-20.28833 48,-39.93688 23.65,-19.64855 53.125,-44.184407 65.5,-54.524127 58.0479,-48.50089 72.5675,-60.2147501 78.0989,-63.0069701 12.3079,-6.21301 29.4548,-6.23295 41.7062,-0.0485 7.295,3.6825 5.3203,2.08572 79.0052,63.8863901 12.2707,10.2916 22.709,18.85395 23.1963,19.02744 0.5017,0.17861 1.0177,-16.73806 1.1897,-39 0.3025,-39.1572401 0.3129,-39.3283701 2.5968,-42.5303301 1.4187,-1.98898 3.7066,-3.60748 6,-4.24442 4.9688,-1.37998998 77.445,-1.37998998 82.4138,0 2.2934,0.63694 4.5813,2.25544 6,4.24442 l 2.2931,3.2149 0.2782,81.2194501 0.2782,81.219437 9.7218,8.32272 c 5.347,4.57749 15.9785,13.47874 23.6256,19.78055 31.1667,25.68386 46.3159,38.40706 50.3385,42.27746 4.4259,4.25832 6.0059,8.563 4.8434,13.19508 -0.6107,2.43326 -22.5054,29.35397 -28.0469,34.4853 -2.163,2.00278 -3.7384,2.5 -7.9216,2.5 -5.1554,0 -5.3797,-0.13117 -17.6694,-10.33129 -6.8463,-5.68221 -14.1962,-11.75721 -16.333,-13.5 -2.1369,-1.74279 -5.0619,-4.15655 -6.5,-5.36391 -1.4381,-1.20736 -11.3898,-9.57058 -22.1148,-18.58493 -10.725,-9.01435 -26.281,-21.97651 -34.5689,-28.8048 -12.7383,-10.49496 -66.4831,-55.28175 -70.0918,-58.40915 -0.6384,-0.55326 -3.0864,-2.58092 -5.4401,-4.50592 -2.3536,-1.925 -5.694,-4.71852 -7.4232,-6.20781 -5.5758,-4.80234 -48.8636,-40.86111 -52.366,-43.62095 -3.4664,-2.73144 -7.6946,-6.276167 -14.0353,-11.766527 -10.7225,-9.28456 -29.3556,-24.40471 -30.0747,-24.40471 -0.7356,0 -20.5318,16.08479 -30.0358,24.40471 -1.9447,1.70241 -5.3197,4.53053 -7.5,6.28471 -5.2944,4.259627 -6.6649,5.399027 -36.8547,30.640637 -14.3602,12.00654 -27.8372,23.25654 -29.9488,25 -2.1116,1.74347 -4.3616,3.62235 -5,4.1753 -0.6384,0.55294 -11.9607,9.9825 -25.1607,20.95456 -13.2,10.97207 -27.1856,22.66966 -31.0792,25.99464 -3.8936,3.32499 -8.8436,7.45739 -11,9.1831 -2.1565,1.72571 -14.4958,11.99456 -27.4208,22.81967 -39.648205,33.20665 -59.896805,49.89523 -64.660905,53.29267 -4.6103,3.28769 -8.7094,4.01689 -12.8391,2.28401 z"
     id="path4151" />
</svg>
