<?xml version="1.0" encoding="UTF-8" standalone="no"?>
<svg
   xmlns:dc="http://purl.org/dc/elements/1.1/"
   xmlns:cc="http://creativecommons.org/ns#"
   xmlns:rdf="http://www.w3.org/1999/02/22-rdf-syntax-ns#"
   xmlns:svg="http://www.w3.org/2000/svg"
   xmlns="http://www.w3.org/2000/svg"
   viewBox="0 0 1159.8168 1159.9521"
   height="1159.9521"
   width="1159.8168"
   version="1.1"
   id="svg2">
  <metadata
     id="metadata8">
    <rdf:RDF>
      <cc:Work
         rdf:about="">
        <dc:format>image/svg+xml</dc:format>
        <dc:type
           rdf:resource="http://purl.org/dc/dcmitype/StillImage" />
        <dc:title></dc:title>
      </cc:Work>
    </rdf:RDF>
  </metadata>
  <defs
     id="defs6" />
  <path
     id="path4138"
     d="m 428.42491,1157.861 c -25.6443,-4.6365 -48.53429,-16.6913 -67.26991,-35.4269 -11.3075,-11.3075 -18.3018,-21.3758 -25.7026,-36.999 -11.6211,-24.5325 -12.9053,-36.6009 -12.9326,-121.53345 l -0.02,-61.5625 64.375,0 64.375,0 0,64.375 0,64.37495 290,0 290,0 0,-451.24995 0,-451.25 -289.99229,0 -289.99229,0 -0.32021,96.5625 -0.32021,96.5625 -63.75,0 -63.75,0 0,-103.75 c 0,-95.7841 0.1754,-104.56579 2.2848,-114.375 5.381,-25.023191 16.3152,-46.153102 33.00869,-63.787662 16.50923,-17.43998 36.6592,-29.73509 59.70651,-36.4317297 l 10,-2.90561003 308.4911,-0.32722 c 298.3937,-0.31652 308.8678,-0.24984 320,2.03699003 38.4864,7.9060697 70.8145,32.4526497 88.784,67.4133097 6.899,13.422285 11.5435,27.944172 13.3277,41.671282 0.9631,7.4097 1.2553,145.73745 1.0031,474.83064 l -0.3559,464.37495 -3.3239,12.0236 c -13.9388,50.4205 -53.2495,86.7334 -103.4023,95.5167 -15.3442,2.6872 -609.32244,2.5508 -624.22389,-0.1434 z M 580,785.58954 l 0,-77.00039 -290,0 -290,0 0,-96.875 0,-96.875 289.9905,0 289.99042,0 0.32204,-76.81264 0.32204,-76.81265 120,116.87697 c 66,64.28232 123.81324,120.66609 128.47385,125.29727 l 8.47386,8.42031 -114.00175,111.20287 C 660.87,784.17286 602.91614,840.5987 594.7846,848.40204 L 580,862.58994 l 0,-77.0004 z"
     style="fill:#ffffff" />
</svg>
