<?xml version="1.0" encoding="UTF-8" standalone="no"?>
<svg
   xmlns:dc="http://purl.org/dc/elements/1.1/"
   xmlns:cc="http://creativecommons.org/ns#"
   xmlns:rdf="http://www.w3.org/1999/02/22-rdf-syntax-ns#"
   xmlns:svg="http://www.w3.org/2000/svg"
   xmlns="http://www.w3.org/2000/svg"
   viewBox="0 0 245.5564 111.98203"
   height="111.98203"
   width="245.5564"
   version="1.1"
   id="svg2">
  <metadata
     id="metadata8">
    <rdf:RDF>
      <cc:Work
         rdf:about="">
        <dc:format>image/svg+xml</dc:format>
        <dc:type
           rdf:resource="http://purl.org/dc/dcmitype/StillImage" />
        <dc:title></dc:title>
      </cc:Work>
    </rdf:RDF>
  </metadata>
  <defs
     id="defs6" />
  <path
     id="path4138"
     d="m 223.98142,111.07444 c 0,-0.52447 -21.42093,-1.13176 -50.75,-1.43878 -52.51685,-0.54974 -60.75,-1.04395 -60.75,-3.64663 0,-2.08655 8.08628,-3.79352 18.52749,-3.91106 10.92522,-0.12299 13.44107,-1.56595 12.67597,-7.270249 -0.74229,-5.534152 -2.67292,-7.979763 -10.40515,-13.180638 -8.59961,-5.784304 -16.18654,-13.133379 -17.97339,-17.409899 -1.24455,-2.978626 -1.18,-3.737641 0.63987,-7.524021 1.11323,-2.31616 6.08261,-8.9362 11.04305,-14.7112 11.99299,-13.96235 12.44303,-16.088794 4.39628,-20.772376 -3.33759,-1.942627 -5.13757,-2.241283 -12.40412,-2.058108 -9.52277,0.240048 -11.11628,0.760762 -15.75,5.146645 -3.13281,2.965248 -3.249997,3.361038 -3.249997,10.976098 0,20.405115 -9.643159,31.707741 -27.052349,31.707741 -7.48327,0 -11.76152,-1.748228 -17.99636,-7.353891 -8.08797,-7.271772 -14.32838,-7.522746 -27.44805,-1.103889 -3.16445,1.548217 -6.89495,2.936636 -8.29002,3.085374 -1.39506,0.148738 -4.75262,0.838413 -7.46124,1.532612 -4.7513896,1.217741 -4.9919396,1.175528 -6.8328146,-1.199014 -1.04943,-1.353655 -2.19466,-4.158665 -2.54496,-6.233355 -0.3503,-2.07469 -1.02779,-4.013748 -1.50555047,-4.309017 -1.49941,-0.926689 -0.94941,-5.876008 1.13165047,-10.183293 1.44136,-2.983287 1.75527,-4.782159 1.1234,-6.437829 -2.53898047,-6.652905 -3.84231047,-15.797698 -2.25151047,-15.797698 0.47971047,0 1.16114047,-1.806959 1.51429047,-4.015465 0.60089,-3.757758 0.81768,-3.976334 3.377805,-3.405729 3.42188,0.762671 7.3843196,5.150534 9.1398096,10.121082 2.54538,7.207138 5.19521,12.40099 6.60227,12.940931 0.77614,0.297829 2.89221,0.102174 4.70239,-0.434788 1.81018,-0.536962 5.99124,-1.565861 9.29124,-2.286441 5.51029,-1.203215 6.61215,-1.934726 13.5,-8.962624 10.51826,-10.732103 12.00516,-11.385461 26,-11.424712 10.9991,-0.03085 11.68511,-0.157821 15.75,-2.9151385 2.337499,-1.585588 4.249999,-3.188015 4.249999,-3.560951 0,-0.372935 2.24898,-1.25446 4.99774,-1.9589461 2.748747,-0.704485 5.250307,-1.689557 5.559017,-2.18904702 0.70446,-1.139849 22.70291,-1.207199 23.99324,-0.0734 0.5225,0.45909002 3.2,1.65360002 5.95,2.65446112 10.98098,3.996523 18.36384,11.2448575 25.5,25.0353385 2.475,4.78289 5.5125,9.794694 6.75,11.137344 1.2375,1.342649 2.25,2.70915 2.25,3.036667 0,1.937677 18.22132,21.270142 28.30135,30.027181 2.04217,1.774141 7.96118,6.216313 13.15336,9.871497 9.33607,6.572385 13.57775,11.312518 14.90165,16.652798 0.62939,2.538809 1.06271,2.749999 5.64246,2.749999 5.50094,0 12.55569,2.3967 13.38033,4.54568 0.79506,2.07187 -0.51611,2.49077 -9.86027,3.1502 -4.68538,0.33065 -8.51888,0.98434 -8.51888,1.45265 0,0.46831 -0.675,0.85147 -1.5,0.85147 -0.825,0 -1.5,-0.40839 -1.5,-0.90753 z M 198.52375,98.901221 c 5.02955,-0.87587 6.46295,-1.5606 7.56068,-3.61173 1.25583,-2.346552 1.14173,-2.700652 -1.56602,-4.859742 -1.60631,-1.280821 -3.23327,-2.135501 -3.61547,-1.899291 -0.3822,0.23621 -1.28686,-0.28378 -2.01036,-1.15555 -0.7235,-0.87176 -4.60638,-4.061845 -8.62863,-7.08907 -13.4884,-10.151671 -26.61932,-24.306025 -34.83685,-37.552087 -1.62013,-2.611516 -3.48889,-4.749016 -4.15282,-4.75 -1.93038,-0.0029 -17.80799,16.413427 -19.25604,19.909326 -1.7744,4.283786 -0.35268,7.202598 5.52701,11.346982 2.52962,1.783047 4.90011,3.247873 5.26775,3.255169 1.52334,0.03023 12.15555,8.653775 15.52992,12.59595 3.19604,3.73386 3.6385,4.897721 3.6385,9.570783 l 0,5.32001 15.16809,0 c 8.34244,0 17.96085,-0.48634 21.37424,-1.08075 z M 82.075134,54.465597 c 3.81658,-2.448115 6.04299,-6.227137 8.01701,-13.607795 1.068339,-3.994395 0.984399,-5.002964 -0.6982,-8.38913 -3.11227,-6.26334 -4.02244,-6.306433 -12.94295,-0.612793 -4.38326,2.797678 -8.64457,5.551904 -9.46957,6.120502 -0.82499,0.568598 -3.51466,2.101319 -5.97701,3.406046 -2.46237,1.304728 -4.93202,3.093551 -5.48813,3.975163 -2.22839,3.532729 4.54529,9.702858 12.80502,11.66409 4.48854,1.065777 9.58361,0.118883 13.75383,-2.556083 z m -55.96813,-6.812341 c 2.95593,-1.280788 7.98543,-3.130064 11.17666,-4.109502 4.31301,-1.323731 5.72256,-2.201852 5.49181,-3.421293 -0.36971,-1.953771 -6.10539,-2.776762 -9.21725,-1.322552 -3.55223,1.65999 -10.9597,4.047059 -13.56657,4.371851 -2.80614,0.349618 -3.82581,3.122549 -1.97035,5.358242 1.56513,1.885869 1.75816,1.86494 8.0857,-0.876746 z m 39.57784,-20.214808 c 9.75681,-6.125903 11.01043,-8.125546 4.79658,-7.651024 -5.96928,0.455846 -10.61779,3.270139 -14.25,8.627205 -5.56636,8.209719 -5.10048,8.161612 9.45342,-0.976181 z"
     style="fill:#ffffff" />
</svg>
